<svg width="70" height="27" viewBox="0 0 70 27" fill="none" xmlns="http://www.w3.org/2000/svg">
<g clip-path="url(#clip0_1_159)">
<path d="M39.9947 1.81766L40.1484 1.9202C41.9547 3.11307 43.2499 4.74905 44.1019 6.72586C44.3064 7.03252 44.1701 7.20301 43.7611 7.30514L43.0689 7.48233C41.5038 7.88551 40.262 8.22457 38.7175 8.62776L37.8366 8.85717C37.5194 8.93565 37.4319 8.9027 37.0945 8.51852L37.0469 8.46397C36.5658 7.91873 36.2054 7.55451 35.5681 7.2294L35.4452 7.16883C33.298 6.1124 31.219 6.41906 29.2764 7.68016C26.9587 9.17969 25.7659 11.3951 25.7999 14.1557C25.8341 16.8821 27.7085 19.1316 30.4011 19.5065C32.7186 19.8133 34.6612 18.9953 36.1949 17.2572C36.5017 16.8821 36.7743 16.4732 37.115 15.9961H30.5375C29.8218 15.9961 29.6514 15.5531 29.89 14.9737L30.0081 14.6955C30.4462 13.6764 31.1255 12.2116 31.5667 11.374L31.663 11.1937C31.7808 10.9894 32.0201 10.7134 32.4801 10.7134H43.4483C43.9409 9.15276 44.7401 7.67811 45.8061 6.28276C48.2941 3.01094 51.2933 1.30674 55.3491 0.591155C58.8254 -0.0224386 62.0974 0.318401 65.0624 2.32926C67.7549 4.16963 69.425 6.65778 69.8681 9.92945C70.4473 14.5306 69.1182 18.2796 65.9486 21.4833C63.6992 23.7668 60.9385 25.1982 57.7689 25.8457C56.8487 26.0162 55.9285 26.0502 55.0424 26.1525C51.941 26.0843 49.1121 25.1982 46.7264 23.1533C45.0484 21.7027 43.8926 19.9202 43.3182 17.8448C42.9152 18.658 42.4359 19.4312 41.8868 20.154C39.4328 23.3919 36.2292 25.4026 32.1735 25.9481C28.8334 26.3911 25.732 25.7434 23.0054 23.6985C20.4833 21.7899 19.0519 19.2679 18.6769 16.1325C18.2339 12.4175 19.3245 9.07742 21.5739 6.14645C23.9939 2.97676 27.1975 0.966038 31.1169 0.250315C34.2613 -0.318435 37.2743 0.0322488 39.9949 1.81766M56.2078 6.70153L56.0987 6.72586C52.9292 7.44158 50.8843 9.45231 50.1345 12.656C49.5209 15.3144 50.816 18.0069 53.27 19.0975C55.1444 19.9155 57.019 19.8133 58.8253 18.893C61.5178 17.4957 62.9833 15.3144 63.1538 12.3834C63.1196 11.9405 63.1196 11.5995 63.0514 11.2586C62.4449 7.92256 59.4059 6.01903 56.2078 6.70153ZM15.9162 12.9287C16.0526 12.9287 16.1208 13.0309 16.1208 13.1672L16.0526 13.9852C16.0526 14.1215 15.9162 14.2238 15.814 14.2238L8.38414 14.1897C8.24783 14.1897 8.21378 14.0875 8.28187 13.9852L8.75902 13.1332C8.82724 13.0309 8.96355 12.9287 9.09986 12.9287H15.9162ZM16.666 9.79315C16.8023 9.79315 16.8705 9.89541 16.8365 9.99768L16.5637 10.8157C16.5297 10.952 16.3934 11.0201 16.2571 11.0201L0.136304 11.0542C-5.06057e-06 11.0542 -0.034048 10.986 0.0340379 10.8838L0.749761 9.96363C0.817983 9.86137 0.988335 9.79315 1.12464 9.79315H16.666ZM18.4383 6.65764C18.5746 6.65764 18.6086 6.7599 18.5406 6.86217L17.9611 7.74824C17.8929 7.85051 17.7226 7.95278 17.6203 7.95278L5.28281 7.9186C5.14636 7.9186 5.11232 7.85051 5.1804 7.74824L5.89613 6.82813C5.96435 6.72586 6.1347 6.65764 6.27101 6.65764H18.4383Z" fill="#00ACD7"/>
</g>
<defs>
<clipPath id="clip0_1_159">
<rect width="70" height="26.25" fill="white"/>
</clipPath>
</defs>
</svg>
