<svg width="50" height="50" viewBox="0 0 50 50" fill="none" xmlns="http://www.w3.org/2000/svg">
<g clip-path="url(#clip0_1_116)">
<path d="M38.2812 0H11.7188C5.24666 0 0 5.24666 0 11.7188V38.2812C0 44.7533 5.24666 50 11.7188 50H38.2812C44.7533 50 50 44.7533 50 38.2812V11.7188C50 5.24666 44.7533 0 38.2812 0Z" fill="#242938"/>
<path fill-rule="evenodd" clip-rule="evenodd" d="M42.1574 15.2957C42.1699 15.3431 42.1766 15.3922 42.1766 15.4416V23.0976C42.1766 23.1959 42.151 23.2924 42.1025 23.3773C42.0542 23.4621 41.9843 23.5327 41.9 23.5818L35.5629 27.2814V34.6144C35.5632 34.7121 35.5379 34.8082 35.4896 34.8932C35.4414 34.9781 35.3718 35.049 35.2877 35.0988L22.0596 42.8205C22.0293 42.8379 21.9963 42.849 21.9633 42.8609C21.9508 42.8652 21.9393 42.8728 21.9262 42.8763C21.8337 42.9009 21.7364 42.9009 21.6439 42.8763C21.6289 42.872 21.615 42.8637 21.6006 42.8582C21.5703 42.847 21.5387 42.8373 21.5098 42.8205L8.28438 35.0988C8.20016 35.0496 8.13038 34.979 8.08203 34.8943C8.0334 34.809 8.00782 34.7126 8.00781 34.6144V11.6463C8.00781 11.5959 8.01465 11.547 8.02715 11.4998C8.03105 11.4836 8.04082 11.4689 8.04629 11.4529C8.05664 11.4236 8.06621 11.3937 8.08145 11.3664C8.0918 11.3482 8.10684 11.3336 8.11934 11.317C8.13496 11.2945 8.14961 11.2715 8.16816 11.2519C8.18379 11.2359 8.20469 11.224 8.22246 11.2101C8.24238 11.1933 8.26035 11.1752 8.28301 11.1619H8.28379L14.8965 7.30115C14.98 7.25238 15.075 7.22668 15.1718 7.22668C15.2685 7.22668 15.3635 7.25238 15.4471 7.30115L22.0602 11.1619H22.0615C22.0834 11.176 22.1021 11.1933 22.1221 11.2094C22.1398 11.2234 22.1598 11.2359 22.1756 11.2513C22.1949 11.2715 22.2088 11.2945 22.2252 11.317C22.2369 11.3336 22.2527 11.3482 22.2623 11.3664C22.2781 11.3943 22.2871 11.4236 22.2982 11.4529C22.3037 11.4689 22.3133 11.4836 22.3174 11.5004C22.3301 11.548 22.3365 11.597 22.3367 11.6463V25.992L27.8473 22.7746V15.4406C27.8473 15.3918 27.8541 15.3424 27.8666 15.2957C27.8715 15.2789 27.8803 15.2642 27.8859 15.2482C27.8969 15.2189 27.9064 15.1888 27.9217 15.1617C27.932 15.1435 27.9471 15.1289 27.9588 15.1121C27.9754 15.0898 27.9891 15.0668 28.0084 15.0472C28.0242 15.0312 28.0441 15.0193 28.0621 15.0053C28.0826 14.9887 28.1006 14.9705 28.1227 14.9572H28.1234L34.7371 11.0963C34.8206 11.0474 34.9156 11.0216 35.0123 11.0216C35.109 11.0216 35.204 11.0474 35.2875 11.0963L41.9006 14.9572C41.924 14.9713 41.9418 14.9885 41.9625 15.0047C41.9797 15.0185 41.9996 15.0312 42.0154 15.0465C42.0348 15.0668 42.0484 15.0898 42.065 15.1121C42.0773 15.1289 42.0926 15.1433 42.1021 15.1617C42.118 15.189 42.127 15.2189 42.1379 15.2482C42.1441 15.2642 42.1533 15.2789 42.1574 15.2957ZM41.074 22.7746V16.408L38.7598 17.7588L35.5627 19.6254V25.992L41.0746 22.7746H41.074ZM34.4609 34.2914V27.9207L31.3162 29.742L22.3359 34.939V41.3697L34.4609 34.2914ZM9.11016 12.6127V34.2914L21.2338 41.3691V34.9396L14.9002 31.3049L14.8982 31.3035L14.8953 31.3021C14.874 31.2896 14.8562 31.2715 14.8361 31.256C14.8189 31.2422 14.799 31.231 14.784 31.2156L14.7826 31.2136C14.7646 31.1961 14.7521 31.1746 14.7371 31.1549C14.7234 31.1361 14.7068 31.1201 14.6959 31.1006L14.6951 31.0984C14.6826 31.0775 14.675 31.0523 14.6662 31.0287C14.6572 31.0078 14.6455 30.9883 14.64 30.9658V30.965C14.6332 30.9387 14.6318 30.9107 14.6289 30.8834C14.6262 30.8625 14.6207 30.8416 14.6207 30.8207V15.8303L11.4244 13.9629L9.11016 12.6133V12.6127ZM15.1727 8.43006L9.66289 11.6465L15.1713 14.8625L20.6805 11.6457L15.1713 8.43025L15.1727 8.43006ZM18.0381 28.5012L21.2346 26.6353V12.6127L18.9201 13.9637L15.7232 15.8301V29.8529L18.0381 28.5012ZM35.0125 12.2254L29.5031 15.4416L35.0125 18.6576L40.5209 15.4408L35.0125 12.2254ZM34.4611 19.6254L31.2641 17.7588L28.95 16.408V22.7746L32.1463 24.6404L34.4611 25.992V19.6254ZM21.7844 33.9726L29.865 29.2945L33.9045 26.957L28.3994 23.7429L22.0609 27.4433L16.284 30.8158L21.7844 33.9726Z" fill="#FF2D20"/>
</g>
<defs>
<clipPath id="clip0_1_116">
<rect width="50" height="50" fill="white"/>
</clipPath>
</defs>
</svg>
