<svg width="50" height="50" viewBox="0 0 50 50" fill="none" xmlns="http://www.w3.org/2000/svg">
<g clip-path="url(#clip0_1_143)">
<path d="M38.2812 0H11.7188C5.24666 0 0 5.24666 0 11.7188V38.2812C0 44.7533 5.24666 50 11.7188 50H38.2812C44.7533 50 50 44.7533 50 38.2812V11.7188C50 5.24666 44.7533 0 38.2812 0Z" fill="#242938"/>
<path d="M39.7422 29.0406C35.7734 29.859 35.4852 28.5146 35.4852 28.5146C39.6777 22.2935 41.4315 14.3971 39.918 12.4648C35.7928 7.1914 28.6502 9.68671 28.5307 9.75136L28.4922 9.7582C27.6198 9.5831 26.7329 9.49063 25.8432 9.48202C24.0469 9.45468 22.6846 9.95312 21.6492 10.7373C21.6492 10.7373 8.90782 5.48866 9.50098 17.3389C9.62735 19.8601 13.1129 36.4275 17.2738 31.415C18.8065 29.5721 20.2758 28.0242 20.2758 28.0242C21.0037 28.509 21.8785 28.7562 22.7945 28.667L22.8658 28.6066C22.845 28.844 22.8547 29.0831 22.8947 29.318C21.8236 30.5154 22.1395 30.7256 19.9971 31.1664C17.8301 31.6127 19.1045 32.4078 19.934 32.6166C20.942 32.8693 23.2738 33.2264 24.8504 31.0209L24.7871 31.2721C25.2074 31.6086 25.5012 33.4598 25.4518 35.1379C25.4023 36.8162 25.3693 37.967 25.699 38.8678C26.0285 39.7687 26.3582 41.793 29.1734 41.2023C31.526 40.6984 32.7439 39.3896 32.9156 37.2117C33.0365 35.6625 33.3084 35.8904 33.3277 34.5062L33.5475 33.8498C33.7986 31.7486 33.5885 31.0717 35.0373 31.3875L35.3902 31.4191C36.4574 31.4672 37.8541 31.2475 38.6725 30.867C40.4371 30.0486 41.4836 28.6807 39.7436 29.0406H39.7422Z" fill="#336791"/>
<path d="M28.5293 9.49141C28.0899 9.62871 35.6211 6.73809 39.9029 12.2078C41.4137 14.14 39.6627 22.0365 35.4699 28.2574M25.0191 30.0359C24.9094 33.9443 25.0467 37.8801 25.4285 38.825C25.8102 39.7697 26.6301 41.6402 29.4467 41.0387C31.7992 40.5348 32.6561 39.5582 33.027 37.4035L33.8961 30.5139L25.0191 30.0359ZM21.6438 10.4432C21.6438 10.4432 8.89395 5.23027 9.48731 17.0801C9.61368 19.6014 13.099 36.1688 17.2602 31.1563C18.7789 29.3256 20.1523 27.8934 20.1523 27.8934L21.6438 10.4432Z" stroke="white" stroke-linecap="round" stroke-linejoin="round"/>
<path d="M35.4713 28.2547C35.4713 28.2547 35.7461 29.6006 39.7285 28.7793C41.4686 28.4195 40.4207 29.7873 38.6574 30.6058C37.21 31.2787 33.9635 31.4504 33.91 30.5234C33.7727 28.1269 35.6184 28.8549 35.4852 28.2547C35.3643 27.7136 34.5375 27.1836 33.9938 25.8597C33.5172 24.706 27.4568 15.8484 35.6746 17.1625C35.9768 17.1008 33.5322 9.33494 25.8418 9.22224C18.1514 9.10954 18.3945 18.6773 18.3945 18.6773" stroke="white" stroke-linecap="round" stroke-linejoin="bevel"/>
<path d="M22.8672 29.076C21.7961 30.2734 22.1119 30.4836 19.9697 30.9244C17.8025 31.3707 19.0771 32.1658 19.9064 32.3746C20.9144 32.6273 23.2463 32.9844 24.8228 30.7774C25.3035 30.1045 24.8201 29.0334 24.1609 28.7615C23.8424 28.6297 23.4166 28.4649 22.8701 29.0774L22.8672 29.076Z" stroke="white" stroke-linejoin="round"/>
<path d="M22.7973 29.0553C22.6873 28.3508 23.028 27.5145 23.3918 26.534C23.9385 25.0647 25.1992 23.5951 24.1912 18.9301C23.4401 15.4555 18.3959 18.2063 18.3959 18.6774C18.3959 19.1484 18.6239 21.067 18.3135 23.2984C17.9057 26.2127 20.1674 28.6764 22.7711 28.425" stroke="white" stroke-linecap="round" stroke-linejoin="round"/>
<path d="M21.597 18.6074C21.5736 18.768 21.8922 19.1979 22.3056 19.2555C22.7189 19.3133 23.0718 18.9782 23.0953 18.816C23.1185 18.6539 22.8 18.4782 22.3867 18.4205C21.9732 18.3629 21.6175 18.4481 21.597 18.6074Z" fill="white" stroke="white"/>
<path d="M34.1818 18.2793C34.2037 18.4399 33.8865 18.8696 33.4732 18.9274C33.0598 18.985 32.7041 18.65 32.6836 18.4879C32.6629 18.3258 32.9789 18.15 33.3922 18.0924C33.8055 18.0348 34.1611 18.1199 34.1818 18.2793Z" fill="white" stroke="white"/>
<path d="M35.6596 17.1654C35.7281 18.4289 35.3875 19.2871 35.3436 20.6316C35.2805 22.5844 36.2748 24.8201 34.7764 27.0586" stroke="white" stroke-linecap="round" stroke-linejoin="round"/>
</g>
<defs>
<clipPath id="clip0_1_143">
<rect width="50" height="50" fill="white"/>
</clipPath>
</defs>
</svg>
