<svg width="50" height="50" viewBox="0 0 50 50" fill="none" xmlns="http://www.w3.org/2000/svg">
<g clip-path="url(#clip0_1_154)">
<path d="M38.2812 0H11.7188C5.24666 0 0 5.24666 0 11.7188V38.2812C0 44.7533 5.24666 50 11.7188 50H38.2812C44.7533 50 50 44.7533 50 38.2812V11.7188C50 5.24666 44.7533 0 38.2812 0Z" fill="#242938"/>
<path d="M24.8592 5.66406C14.9428 5.66406 15.5619 9.96445 15.5619 9.96445L15.573 14.4195H25.0361V15.7574H11.8143C11.8143 15.7574 5.46875 15.0375 5.46875 25.0432C5.46875 35.049 11.0072 34.6943 11.0072 34.6943H14.3127V30.0512C14.3127 30.0512 14.1346 24.5127 19.7629 24.5127H29.1484C29.1484 24.5127 34.4217 24.5979 34.4217 19.4162V10.8488C34.4217 10.8488 35.2223 5.66406 24.8592 5.66406ZM19.6412 8.65996C19.8649 8.65973 20.0864 8.70361 20.293 8.78909C20.4997 8.87457 20.6875 8.99997 20.8456 9.15811C21.0037 9.31625 21.1291 9.50403 21.2146 9.71069C21.3001 9.91736 21.344 10.1389 21.3438 10.3625C21.344 10.5861 21.3001 10.8076 21.2146 11.0142C21.1291 11.2209 21.0037 11.4086 20.8455 11.5668C20.6874 11.7249 20.4996 11.8503 20.293 11.9357C20.0863 12.0212 19.8648 12.0651 19.6412 12.0648C19.4176 12.065 19.1961 12.0212 18.9895 11.9357C18.7829 11.8502 18.5951 11.7248 18.437 11.5667C18.2789 11.4086 18.1535 11.2208 18.068 11.0142C17.9826 10.8076 17.9387 10.5861 17.9389 10.3625C17.9386 10.1389 17.9825 9.91739 18.068 9.71074C18.1534 9.50408 18.2788 9.31631 18.4369 9.15818C18.5951 9.00004 18.7828 8.87463 18.9895 8.78914C19.1961 8.70365 19.4176 8.65976 19.6412 8.65996Z" fill="url(#paint0_linear_1_154)"/>
<path d="M25.1409 44.523C35.0573 44.523 34.4381 40.2228 34.4381 40.2228L34.427 35.7676H24.9639V34.4299H38.1858C38.1858 34.4299 44.5313 35.1496 44.5313 25.1437C44.5313 15.1379 38.9928 15.4928 38.9928 15.4928H35.6874V20.1359C35.6874 20.1359 35.8655 25.6744 30.2372 25.6744H20.8516C20.8516 25.6744 15.5782 25.5891 15.5782 30.7707V39.3383C15.5782 39.3383 14.7776 44.523 25.1409 44.523ZM30.3588 41.5271C30.1352 41.5274 29.9137 41.4835 29.7071 41.398C29.5004 41.3126 29.3127 41.1872 29.1545 41.0291C28.9964 40.8709 28.871 40.6832 28.7855 40.4765C28.7 40.2699 28.6561 40.0484 28.6563 39.8248C28.6561 39.6012 28.7 39.3797 28.7854 39.173C28.8709 38.9663 28.9963 38.7785 29.1545 38.6204C29.3126 38.4623 29.5004 38.3369 29.707 38.2514C29.9137 38.1659 30.1352 38.122 30.3588 38.1223C30.5825 38.1221 30.804 38.166 31.0106 38.2514C31.2173 38.3369 31.405 38.4623 31.5632 38.6205C31.7213 38.7786 31.8467 38.9664 31.9322 39.173C32.0177 39.3797 32.0616 39.6012 32.0614 39.8248C32.0616 40.0484 32.0176 40.2699 31.9321 40.4765C31.8466 40.6831 31.7212 40.8709 31.5631 41.029C31.405 41.1871 31.2172 41.3125 31.0106 41.398C30.8039 41.4835 30.5825 41.5273 30.3588 41.5271Z" fill="url(#paint1_linear_1_154)"/>
</g>
<defs>
<linearGradient id="paint0_linear_1_154" x1="9.22266" y1="9.15937" x2="28.5807" y2="28.3242" gradientUnits="userSpaceOnUse">
<stop stop-color="#387EB8"/>
<stop offset="1" stop-color="#366994"/>
</linearGradient>
<linearGradient id="paint1_linear_1_154" x1="21.1047" y1="21.4658" x2="41.893" y2="41.1176" gradientUnits="userSpaceOnUse">
<stop stop-color="#FFE052"/>
<stop offset="1" stop-color="#FFC331"/>
</linearGradient>
<clipPath id="clip0_1_154">
<rect width="50" height="50" fill="white"/>
</clipPath>
</defs>
</svg>
