<svg width="50" height="45" viewBox="0 0 50 45" fill="none" xmlns="http://www.w3.org/2000/svg">
<g clip-path="url(#clip0_1_112)">
<path d="M41.11 14.4187C40.5778 14.2362 40.0412 14.0671 39.5006 13.9115C39.5914 13.5404 39.675 13.1738 39.7492 12.8136C40.9676 6.89938 40.1711 2.13473 37.4506 0.565982C34.8422 -0.937925 30.5764 0.630239 26.2682 4.37965C25.8436 4.74982 25.4284 5.13067 25.023 5.52184C24.7517 5.26174 24.4755 5.00668 24.1947 4.7568C19.6795 0.747818 15.1537 -0.941831 12.4361 0.631411C9.83008 2.14001 9.0584 6.61911 10.1553 12.2242C10.2644 12.7793 10.3876 13.3316 10.5248 13.8804C9.88418 14.0625 9.26602 14.2562 8.67441 14.4625C3.38066 16.3082 0 19.2006 0 22.2007C0 25.2994 3.6293 28.4074 9.14297 30.292C9.58998 30.4441 10.0407 30.5851 10.4947 30.7148C10.3473 31.306 10.2164 31.9011 10.1021 32.4996C9.05645 38.0074 9.87305 42.3806 12.4721 43.8797C15.1564 45.4277 19.6619 43.8367 24.0488 40.0017C24.4045 39.6899 24.7524 39.3693 25.0922 39.0402C25.5312 39.4638 25.9819 39.875 26.4438 40.2734C30.6934 43.93 34.8902 45.4066 37.4867 43.9035C40.1686 42.3509 41.0402 37.6529 39.9086 31.9371C39.8194 31.4893 39.7195 31.0437 39.6088 30.6007C39.9252 30.507 40.2357 30.4105 40.5385 30.3101C46.2705 28.4111 50 25.3408 50 22.2007C50 19.1896 46.5102 16.2777 41.11 14.4187ZM39.8668 28.2828C39.5931 28.3731 39.3131 28.4607 39.027 28.5455C38.3941 26.5422 37.5402 24.4121 36.4951 22.2111C37.4924 20.0627 38.3135 17.9597 38.9285 15.9695C39.44 16.1175 39.9363 16.2736 40.4148 16.4382C45.0418 18.0312 47.8641 20.3861 47.8641 22.2007C47.8641 24.1336 44.816 26.6427 39.8668 28.2828ZM37.8133 32.3519C38.3137 34.8793 38.385 37.1644 38.0535 38.9509C37.7559 40.5562 37.157 41.6263 36.4164 42.055C34.8408 42.9672 31.4711 41.7816 27.8369 38.6543C27.4073 38.2838 26.9881 37.9015 26.5797 37.5078C27.9887 35.967 29.3967 34.1758 30.7709 32.1863C33.1881 31.9718 35.4717 31.6211 37.5426 31.1424C37.6448 31.5541 37.735 31.9573 37.8133 32.3519ZM17.0461 41.8974C15.5066 42.441 14.2805 42.4566 13.5393 42.0293C11.9621 41.1197 11.3064 37.6082 12.2008 32.898C12.3071 32.3414 12.4288 31.7879 12.5658 31.2381C14.6139 31.6912 16.8809 32.017 19.3037 32.2134C20.6873 34.1601 22.1359 35.9494 23.5959 37.5162C23.2856 37.8164 22.968 38.1089 22.6434 38.3935C20.7033 40.0892 18.7594 41.2924 17.0461 41.8974ZM9.83398 28.2709C7.3959 27.4375 5.38242 26.3545 4.00234 25.1726C2.76211 24.1107 2.13613 23.0562 2.13613 22.2007C2.13613 20.38 4.85039 18.0578 9.37754 16.4795C9.92695 16.2881 10.502 16.1074 11.0986 15.9379C11.7244 17.973 12.5451 20.1009 13.5355 22.2527C12.5322 24.4363 11.6998 26.5982 11.068 28.6574C10.6535 28.5387 10.2421 28.4098 9.83398 28.2709ZM12.2516 11.8138C11.3119 7.01168 11.9359 3.38922 13.5064 2.48004C15.1791 1.51168 18.8779 2.89235 22.7766 6.35407C23.0308 6.5803 23.2809 6.81114 23.5268 7.04645C22.074 8.60641 20.6387 10.3824 19.2674 12.3175C16.9158 12.5355 14.6648 12.8855 12.5953 13.3545C12.4678 12.844 12.3532 12.3301 12.2516 11.8138ZM33.8193 17.1398C33.3305 16.2955 32.8236 15.4617 32.2988 14.6392C33.8941 14.841 35.4227 15.1088 36.858 15.4361C36.4271 16.8173 35.89 18.2613 35.2578 19.7418C34.7957 18.865 34.3161 17.9975 33.8193 17.1398ZM25.024 8.57321C26.0092 9.64059 26.9959 10.8322 27.9664 12.1252C25.9977 12.0322 24.0256 12.0318 22.0568 12.124C23.0283 10.8429 24.0234 9.6529 25.024 8.57321ZM16.1723 17.1543C15.6817 18.005 15.2111 18.8671 14.7607 19.7398C14.1389 18.2646 13.6066 16.814 13.1721 15.4132C14.5986 15.0941 16.1199 14.8332 17.7051 14.6351C17.1745 15.4627 16.6634 16.3027 16.1723 17.1543ZM17.7506 29.9181C16.1129 29.7353 14.5688 29.4879 13.1426 29.1773C13.584 27.7515 14.1279 26.2701 14.7633 24.7632C15.2154 25.6366 15.688 26.4992 16.1807 27.3504C16.6873 28.2254 17.2119 29.0824 17.7506 29.9181ZM25.083 35.9787C24.0705 34.8865 23.0607 33.6781 22.0746 32.3785C23.032 32.416 24.008 32.4351 25 32.4351C26.0191 32.4351 27.0266 32.4123 28.0182 32.3681C27.0445 33.6912 26.0615 34.9013 25.083 35.9787ZM35.2779 24.6863C35.9463 26.2097 36.5096 27.6834 36.9568 29.0847C35.5072 29.4156 33.942 29.682 32.2928 29.8799C32.8213 29.0421 33.333 28.1939 33.8277 27.3357C34.3308 26.4635 34.8143 25.5801 35.2779 24.6863ZM31.9775 26.2685C31.2201 27.5842 30.4201 28.8749 29.5789 30.1386C28.055 30.2466 26.5277 30.3002 25 30.2994C23.4439 30.2994 21.9305 30.2509 20.473 30.1564C19.6098 28.8957 18.7945 27.6027 18.0291 26.2802C17.2672 24.9649 16.5557 23.621 15.8959 22.2515C16.554 20.8818 17.2635 19.5373 18.0229 18.2209L18.0227 18.2211C18.7816 16.9043 19.5903 15.6168 20.4471 14.3615C21.934 14.249 23.4588 14.1904 24.9998 14.1904C26.5479 14.1904 28.0748 14.2496 29.5613 14.3629C30.4094 15.6163 31.213 16.8993 31.9705 18.2095C32.7322 19.5231 33.4511 20.861 34.126 22.2213C33.458 23.5954 32.7414 24.9453 31.9775 26.2685ZM36.3838 2.41618C38.058 3.3818 38.7092 7.27575 37.6572 12.3822C37.5898 12.7082 37.5149 13.0396 37.4326 13.3763C35.358 12.8974 33.1055 12.5414 30.7471 12.3201C29.3732 10.3636 27.9496 8.58493 26.5205 7.04508C26.8951 6.68406 27.2785 6.33239 27.6705 5.9904C31.3619 2.77809 34.8119 1.50973 36.3838 2.41618ZM25 17.7359C27.4658 17.7359 29.4648 19.7349 29.4648 22.2007C29.4648 24.6666 27.4658 26.6656 25 26.6656C22.5342 26.6656 20.5352 24.6666 20.5352 22.2007C20.5352 19.7349 22.5342 17.7359 25 17.7359Z" fill="#00D8FF"/>
</g>
<defs>
<clipPath id="clip0_1_112">
<rect width="50" height="44.5312" fill="white"/>
</clipPath>
</defs>
</svg>
